<?xml version="1.0" standalone="no"?>
<!DOCTYPE svg PUBLIC "-//W3C//DTD SVG 20010904//EN"
 "http://www.w3.org/TR/2001/REC-SVG-20010904/DTD/svg10.dtd">
<svg version="1.0" xmlns="http://www.w3.org/2000/svg"
 width="1024.000000pt" height="1024.000000pt" viewBox="0 0 1024.000000 1024.000000"
 preserveAspectRatio="xMidYMid meet">
<metadata>
Created by potrace 1.16, written by Peter Selinger 2001-2019
</metadata>
<g transform="translate(0.000000,1024.000000) scale(0.100000,-0.100000)"
fill="#000000" stroke="none">
<path d="M2642 7699 c-179 -30 -305 -124 -377 -281 -50 -110 -57 -165 -65
-568 -6 -303 -10 -385 -23 -425 -30 -93 -129 -162 -248 -172 l-59 -6 0 -122 0
-122 57 -6 c71 -7 175 -58 208 -101 55 -73 58 -91 66 -501 8 -425 14 -469 75
-585 92 -176 266 -260 535 -260 l109 0 0 129 0 128 -72 2 c-119 3 -196 31
-255 93 -66 69 -67 73 -74 498 -7 415 -10 439 -65 539 -15 29 -47 69 -70 91
-45 41 -131 90 -161 91 -10 0 4 9 31 20 108 44 187 122 225 224 32 85 41 199
41 516 0 185 4 317 12 354 27 135 110 198 286 218 l102 11 0 123 0 123 -112
-1 c-62 -1 -137 -5 -166 -10z"/>
<path d="M3540 7175 c-214 -41 -378 -143 -484 -303 -57 -86 -91 -172 -119
-297 -20 -93 -21 -126 -22 -495 0 -435 4 -480 60 -635 54 -152 135 -260 254
-339 128 -85 233 -116 417 -123 164 -7 263 11 384 69 69 33 101 56 168 124
l82 83 0 -124 0 -125 140 0 140 0 0 565 0 565 -430 0 -430 0 0 -150 0 -150
256 0 256 0 -7 -77 c-26 -278 -163 -448 -391 -483 -231 -36 -435 92 -502 314
-23 78 -30 791 -8 907 38 201 140 317 321 364 122 31 263 10 364 -55 96 -62
151 -152 173 -282 7 -37 17 -68 23 -67 5 0 89 10 185 23 204 26 194 16 161
148 -67 263 -244 442 -516 524 -77 22 -113 27 -245 30 -107 2 -178 -1 -230
-11z"/>
<path d="M6121 7098 c-11 -35 -147 -454 -301 -933 -155 -478 -301 -931 -326
-1006 -24 -75 -44 -139 -44 -142 0 -4 85 -7 188 -7 l188 0 75 243 76 242 403
0 402 0 76 -242 75 -243 195 0 c151 0 193 3 189 13 -2 6 -55 167 -117 357 -61
190 -158 487 -215 660 -57 173 -162 496 -235 718 l-131 402 -239 0 -238 0 -21
-62z m413 -801 c80 -257 146 -469 146 -470 0 -1 -135 -1 -300 1 -169 1 -298 6
-295 11 9 15 285 925 285 941 1 13 2 13 9 0 5 -8 75 -226 155 -483z"/>
<path d="M7741 7018 c16 -79 74 -384 129 -678 55 -294 134 -711 175 -926 41
-214 75 -393 75 -397 0 -4 61 -7 135 -7 114 0 135 2 135 15 0 9 -70 388 -156
843 -85 455 -173 924 -195 1042 -22 118 -42 223 -45 233 -5 15 -21 17 -143 17
l-137 0 27 -142z"/>
<path d="M4935 5481 c-52 -24 -121 -99 -134 -147 -27 -99 -7 -179 65 -251 59
-60 110 -78 193 -70 74 8 138 49 177 115 38 63 48 115 33 182 -31 144 -201
232 -334 171z"/>
<path d="M3040 3385 l0 -405 60 0 60 0 0 405 0 405 -60 0 -60 0 0 -405z"/>
<path d="M4340 3639 l0 -152 -20 26 c-52 65 -203 77 -282 21 -61 -42 -103
-109 -118 -189 -28 -150 28 -286 145 -348 83 -44 213 -19 263 50 l20 28 -5
-48 -6 -47 57 0 56 0 0 405 0 405 -55 0 -55 0 0 -151z m-69 -192 c48 -32 71
-84 72 -165 1 -85 -15 -133 -58 -171 -90 -79 -214 -29 -245 99 -23 95 10 202
73 240 45 28 115 26 158 -3z"/>
<path d="M5690 3385 l0 -405 50 0 50 0 0 46 0 46 28 -29 c44 -48 90 -67 157
-67 103 1 195 69 229 172 20 58 21 183 1 248 -18 62 -72 126 -128 153 -83 40
-206 19 -255 -44 l-22 -28 0 157 0 156 -55 0 -55 0 0 -405z m330 67 c56 -30
85 -92 84 -182 0 -84 -15 -122 -63 -163 -39 -32 -79 -41 -128 -28 -73 20 -113
89 -113 195 0 36 5 77 11 93 12 33 56 82 84 93 34 15 89 11 125 -8z"/>
<path d="M7030 3385 l0 -405 55 0 55 0 0 43 0 44 40 -38 c114 -109 310 -48
367 114 27 77 24 207 -5 272 -45 98 -124 154 -219 155 -67 0 -99 -13 -146 -58
l-38 -37 3 158 3 157 -57 0 -58 0 0 -405z m341 62 c19 -12 44 -42 57 -67 20
-38 23 -56 19 -120 -4 -85 -22 -128 -67 -160 -71 -51 -174 -24 -214 55 -30 57
-30 185 0 235 45 78 136 103 205 57z"/>
<path d="M8330 3785 c0 -3 0 -184 0 -402 l-1 -398 56 -3 55 -3 0 406 0 405
-55 0 c-30 0 -55 -2 -55 -5z"/>
<path d="M2130 3766 c-112 -30 -184 -91 -234 -196 -30 -62 -31 -71 -31 -190 0
-119 1 -128 31 -190 42 -90 84 -134 161 -172 55 -27 80 -33 154 -36 108 -5
165 9 225 55 l44 33 0 -45 0 -45 50 0 50 0 0 205 0 205 -172 0 -173 0 -1 -55
0 -55 118 0 c116 0 118 0 118 -22 -1 -39 -36 -104 -71 -130 -45 -33 -91 -48
-152 -48 -148 0 -248 100 -264 263 -12 130 37 244 131 302 44 27 58 30 130 30
101 0 158 -27 194 -93 23 -41 24 -42 78 -42 37 0 54 4 54 13 0 32 -52 117 -91
150 -78 68 -232 95 -349 63z"/>
<path d="M5106 3643 c-100 -264 -236 -636 -236 -647 0 -7 21 -10 63 -8 l62 3
31 87 c16 48 33 86 37 85 4 -2 81 -3 171 -3 l163 0 32 -87 31 -88 63 3 64 4
-107 286 c-59 158 -125 333 -146 389 l-39 103 -70 0 -70 0 -49 -127z m184
-180 c33 -94 60 -174 60 -177 0 -3 -56 -6 -125 -6 -72 0 -125 4 -125 10 0 5
25 80 56 167 30 87 57 164 60 172 2 8 7 12 9 9 3 -2 32 -81 65 -175z"/>
<path d="M6662 3630 l3 -70 -52 0 -53 0 0 -50 0 -50 53 0 52 0 -2 -142 c-3
-206 4 -264 38 -302 26 -30 31 -31 118 -34 l91 -4 0 50 0 50 -40 -5 c-27 -4
-47 0 -65 11 l-25 16 0 180 0 180 65 0 65 0 0 50 0 50 -65 0 -65 0 0 70 0 70
-61 0 -61 0 4 -70z"/>
<path d="M3456 3555 c-71 -25 -118 -71 -135 -132 l-10 -33 57 0 c53 0 58 2 74
30 21 36 53 50 119 50 80 0 119 -28 119 -86 0 -34 -33 -51 -129 -64 -156 -21
-241 -72 -257 -155 -11 -63 25 -134 84 -164 86 -44 184 -38 262 14 l50 34 0
-35 0 -34 53 0 52 0 -5 227 c-4 190 -8 233 -22 259 -23 43 -71 81 -116 94 -52
14 -150 12 -196 -5z m204 -414 c-28 -55 -67 -74 -143 -69 -68 5 -97 29 -97 79
0 40 40 63 147 82 48 9 91 21 97 27 22 22 19 -75 -4 -119z"/>
<path d="M2757 3554 c-4 -4 -7 -135 -7 -291 l0 -283 55 0 55 0 0 280 c0 154 1
283 3 288 3 9 -97 15 -106 6z"/>
<path d="M6350 3270 l0 -290 55 0 55 0 0 290 0 290 -55 0 -55 0 0 -290z"/>
<path d="M7690 3343 c0 -191 3 -223 19 -258 56 -122 215 -153 308 -60 l33 33
0 -39 0 -39 55 0 55 0 0 290 0 290 -55 0 -55 0 0 -187 c0 -161 -3 -194 -19
-229 -42 -92 -170 -100 -213 -14 -15 30 -18 64 -18 233 l0 197 -55 0 -55 0 0
-217z"/>
</g>
</svg>
